<svg width="33" height="27" viewBox="0 0 33 27" fill="none" xmlns="http://www.w3.org/2000/svg"><g id="download (1) 1" clip-path="url(#clip0_109_828)"><path id="Vector" d="M9.46063 14.8344C9.46063 15.581 8.87416 16.1852 8.16163 16.1852C7.43569 16.1852 6.84832 15.582 6.84832 14.8344C6.84832 14.1015 7.4348 13.4983 8.16163 13.4983C8.87416 13.4983 9.46063 14.1015 9.46063 14.8344ZM25.5806 14.8206C25.5806 15.5673 24.9941 16.1714 24.2673 16.1714C23.5404 16.1714 22.954 15.5682 22.954 14.8206C22.954 14.073 23.5404 13.4845 24.2673 13.4845C24.9941 13.4845 25.5806 14.0739 25.5806 14.8206ZM11.0529 14.8344C11.0529 13.3116 9.8379 12.061 8.35652 12.061C6.86173 12.061 5.66018 13.3107 5.66018 14.8344C5.66018 16.3719 6.86173 17.6077 8.35652 17.6077C9.83701 17.6077 11.0529 16.3719 11.0529 14.8344ZM27.1594 14.8206C27.1594 13.2978 25.9578 12.0472 24.4631 12.0472C22.9826 12.0472 21.7667 13.2969 21.7667 14.8206C21.7667 16.3581 22.9817 17.594 24.4631 17.594C25.9578 17.594 27.1594 16.3581 27.1594 14.8206ZM12.2401 14.8344C12.2401 17.0468 10.5084 18.8427 8.35652 18.8427C6.20463 18.8427 4.45952 17.0468 4.45952 14.8344C4.45952 12.6357 6.20553 10.8398 8.35652 10.8398C10.5075 10.8398 12.2401 12.6357 12.2401 14.8344ZM28.361 14.8206C28.361 17.033 26.6149 18.8151 24.464 18.8151C22.3264 18.8151 20.5804 17.0339 20.5804 14.8206C20.5804 12.6072 22.3264 10.826 24.464 10.826C26.6149 10.826 28.361 12.6072 28.361 14.8206ZM14.8944 14.8629C14.8944 11.1994 12.0032 8.2246 8.44056 8.2246C4.89222 8.2246 2.00099 11.1984 2.00099 14.8629C2.00099 18.5273 4.89222 21.5012 8.44056 21.5012C12.0023 21.5012 14.8944 18.5273 14.8944 14.8629ZM24.2261 6.63009C21.9214 5.59559 19.3234 5.03558 16.4599 5.03558C13.5963 5.03558 10.7462 5.59559 8.45576 6.61629C12.8838 6.63101 16.4599 10.3092 16.4599 14.8638C16.4599 10.3957 19.9099 6.75883 24.2261 6.63009ZM30.9169 14.8629C30.9169 11.1994 28.0391 8.2246 24.4774 8.2246C20.9156 8.2246 18.0235 11.1984 18.0235 14.8629C18.0235 18.5273 20.9147 21.5012 24.4774 21.5012C28.04 21.5012 30.9169 18.5273 30.9169 14.8629ZM27.2014 6.73124H32.5512C31.7126 7.73723 31.0984 9.08714 30.9447 10.0214C31.9084 11.386 32.4815 13.0532 32.4815 14.8638C32.4815 19.4184 28.8911 23.0966 24.4774 23.0966C21.9634 23.0966 19.7275 21.9186 18.2613 20.0648C18.2613 20.0648 17.6051 20.8694 16.459 22.6368C16.2632 22.2202 15.2717 20.7692 14.6709 20.051C13.2039 21.9186 10.9554 23.0975 8.44056 23.0975C4.02682 23.0975 0.436463 19.4193 0.436463 14.8647C0.436463 13.0541 1.00953 11.3879 1.97327 10.0223C1.8195 9.08806 1.20531 7.73815 0.36673 6.73216H5.46529C8.20365 4.84983 12.1847 3.67188 16.459 3.67188C20.7332 3.67188 24.4631 4.84983 27.2014 6.73216V6.73124Z" fill="currentColor"></path></g><defs><clipPath id="clip0_109_828"><rect width="32.1845" height="25.7476" fill="white" transform="translate(0.367706 0.509766)"></rect></clipPath></defs></svg>