<svg width="41" height="41" viewBox="0 0 41 41" fill="none" xmlns="http://www.w3.org/2000/svg"><g id="Frame 71"><path id="Vector" d="M20.435 18.672H31.7198C31.8284 19.2786 31.9061 19.8704 31.9061 20.6643C31.9061 27.4822 27.3296 32.3386 20.434 32.3386C13.8184 32.3386 8.4798 27.0001 8.4798 20.3844C8.4798 13.7687 13.8184 8.43018 20.434 8.43018C23.6557 8.43018 26.3643 9.61364 28.4503 11.5592L25.1968 14.6882C24.3092 13.8325 22.7531 12.8363 20.434 12.8363C16.3556 12.8363 13.0244 16.2144 13.0244 20.3854C13.0244 24.5564 16.3556 27.9345 20.434 27.9345C25.1659 27.9345 26.9401 24.5415 27.221 22.7822H20.434V18.673L20.435 18.672Z" fill="currentColor"></path></g></svg>