<svg width="41" height="41" viewBox="0 0 41 41" fill="none" xmlns="http://www.w3.org/2000/svg"><g id="Frame 69"><g id="Group 26"><g id="Group"><path id="Vector" d="M8.58432 14.483C8.58432 12.9181 9.20598 11.4173 10.3125 10.3107C11.4191 9.20418 12.9199 8.58252 14.4848 8.58252H26.2858C27.8507 8.58252 29.3515 9.20418 30.458 10.3107C31.5646 11.4173 32.1863 12.9181 32.1863 14.483V26.284C32.1863 27.8489 31.5646 29.3497 30.458 30.4562C29.3515 31.5628 27.8507 32.1845 26.2858 32.1845H14.4848C12.9199 32.1845 11.4191 31.5628 10.3125 30.4562C9.20598 29.3497 8.58432 27.8489 8.58432 26.284V14.483Z" stroke="currentColor" stroke-width="2.14563" stroke-linecap="round" stroke-linejoin="round"></path><path id="Vector_2" d="M27.0227 13.7456V13.7604M15.9593 20.3837C15.9593 21.5573 16.4255 22.6829 17.2554 23.5129C18.0853 24.3428 19.2109 24.809 20.3846 24.809C21.5583 24.809 22.6839 24.3428 23.5138 23.5129C24.3437 22.6829 24.81 21.5573 24.81 20.3837C24.81 19.21 24.3437 18.0844 23.5138 17.2544C22.6839 16.4245 21.5583 15.9583 20.3846 15.9583C19.2109 15.9583 18.0853 16.4245 17.2554 17.2544C16.4255 18.0844 15.9593 19.21 15.9593 20.3837Z" stroke="currentColor" stroke-width="2.14563" stroke-linecap="round" stroke-linejoin="round"></path></g></g></g></svg>